<svg xmlns="http://www.w3.org/2000/svg" width="533" height="468">
  <path d="m301 9 2.133.309C341.641 14.97 380.993 31.717 410 58v2l1.625.688c3.2 1.768 5.665 3.849 8.375 6.312v2h2c1.516 1.504 1.516 1.504 3.25 3.563l1.863 2.199L429 77l1.793 2.02 1.644 1.855 1.497 1.68C435 84 435 84 435 86h2a107 107 0 0 1 4.563 6.5l1.336 2.034c16.374 25.24 28.27 53.916 31.742 83.974.096 2.429.096 2.429 1.359 3.492 3.271.626 6.545 1.192 9.834 1.719 9.617 1.67 16.703 6.707 22.783 14.3 5.776 8.664 5.691 17.682 5.684 27.79l.013 4.004q.01 4.179.002 8.358c-.006 3.548.01 7.096.034 10.644.015 2.753.016 5.506.013 8.26 0 1.936.014 3.873.028 5.81-.057 11.011-2.235 19.569-9.391 28.115-5.673 5.51-11.684 8.237-19 11l-.044 2.209c-.62 27.819-4.044 53.233-17.956 77.791l-1.645 2.941c-16.516 27.608-44.372 45.933-75.117 53.85-17.678 4.422-35.052 5.783-53.238 6.209l-.781 2.305c-1.285 2.842-2.257 3.974-4.719 5.82l-1.844 1.445c-9.567 5.15-19.356 4.896-29.95 4.821-2.7-.016-5.398 0-8.097.02-13.475.017-23.347-.926-33.609-10.411-6.117-6.588-7.284-13.957-7.152-22.703.54-8.135 3.429-15.11 9.59-20.547 13.828-11.422 37.302-8.675 54.25-7.062 8.074.896 14.855 3.054 20.312 9.312v2h2l1 2c6.389 1.588 12.54.63 19-.187 1.671-.209 1.671-.209 3.376-.42 16.197-2.134 32.191-6.6 46.624-14.393l-2.71-.445c-8.237-1.528-14.45-3.73-21.29-8.555l-3-2v-2l-5-2v-2h-2c-1.945-2.117-1.945-2.117-4.125-4.875l-2.195-2.742C366 370 366 370 366 368h-2v-3h-2c-1.313-1.421-1.313-1.421-2.785-3.395l-1.608-2.146c-.55-.75-1.102-1.5-1.67-2.272l-1.681-2.236c-4.121-5.546-4.121-5.546-5.256-8.951h-2a100 100 0 0 1-3.625-5.062C336.222 330.892 328.086 324.806 316 322c-5.464-.798-10.757-1.153-16.273-1.161l-2.38-.015q-3.861-.021-7.722-.027l-2.692-.009q-7.06-.022-14.119-.028c-4.816-.006-9.633-.03-14.449-.058-3.742-.019-7.485-.024-11.227-.026a916 916 0 0 1-5.32-.024c-16.21-.113-30.43 1.123-44.818 9.348l-2.203.934c-2.312 1.372-2.694 2.635-3.797 5.066a153 153 0 0 1-4 5.25l-2.125 2.703L183 346h-2l-.687 2.063c-1.625 3.636-3.641 6.965-6.313 9.937h-2l-.75 1.625c-1.557 2.957-3.284 5.672-5.25 8.375h-2l-.687 2.125c-1.651 3.616-3.604 5.963-6.313 8.875h-2l-1 3h-2v2c-11.403 9.684-24.458 15.95-39.75 14.875C100.355 397.201 88.932 393.519 81 384v-2h-2c-11.01-14.964-11.785-31.646-9.09-49.38 2-12.597 4.189-25.195 7.09-37.62l-.75 2.438C75 300 75 300 73.241 300.65c-4.448.695-8.936.535-13.428.538l-3.042.037c-9.751.019-17.22-1.56-25.771-6.225v-2l-1.687-.562c-5.302-3.296-7.869-8.912-9.7-14.667-1.27-5.736-1.085-11.598-1.082-17.447l-.023-4.247q-.019-4.434-.009-8.868c.006-3.755-.025-7.51-.065-11.265a862 862 0 0 1-.025-8.764 351 351 0 0 0-.03-4.149c-.124-10.72 1.534-20.16 8.308-28.781C29 192 29 192 31 192l1-3c7.602-4.975 16.137-6.133 25-7l-.16-2.742c.01-5.605 1.443-10.956 2.722-16.383l.817-3.476C64.417 142.679 69.712 127.085 78 112l.972-1.814a194 194 0 0 1 12.403-20.061l1.3-1.86C93.73 86.803 94.86 85.395 96 84h2l2-5h2l.688-1.625c1.768-3.2 3.849-5.665 6.312-8.375h2v-2h2l1-3h2v-2a105 105 0 0 1 5.313-4.562l2.988-2.442C127 53 127 53 130 52v-2a114 114 0 0 1 6.563-4.562l2.05-1.342A759 759 0 0 1 145 40l1.94-1.235C192.294 10.143 248.227.89 301 9M198 54l-2.145.78c-8.898 3.288-17.186 7.314-25.417 12.032l-2.547 1.456-2.332 1.377-2.085 1.23L162 72v2l-2 .625c-4.072 1.866-7.688 4.35-11 7.375v2l-6 3v2l-3 1v2h-2v2l-1.937.813c-2.394 1.074-2.394 1.074-3.063 4.187h-2c-2.045 2.173-2.045 2.173-4.125 4.875l-2.195 2.742c-1.872 2.17-1.872 2.17-1.68 4.383h-2c-1.62 2.136-1.62 2.136-3.25 4.875l-1.887 3.059L114 122l-1.582 2.535c-14.215 23.066-21.182 48.224-23.721 75.006l-.232 2.397-.2 2.152C88 206 88 206 87 209a291 291 0 0 0-.344 7.078c-.585 11.985-2.44 23.807-4.156 35.672l-.973 6.867a5163 5163 0 0 1-1.787 12.495l-.36 2.503a113 113 0 0 1-.92 5.01c-.537 2.775-.557 5.363-.522 8.188l.027 2.957L78 292h1c1.44-6.172 2.578-12.328 3.535-18.594C83 271 83 271 84 270c.413-2.16.776-4.329 1.125-6.5 1.632-9.776 3.753-19.446 5.85-29.13 1.768-8.18 3.435-16.337 4.65-24.62 1.116-7.38 3.3-13.955 6.375-20.75l1.082-2.562C107.915 175.78 115.717 166.09 125 159l1.664-1.352c14.762-11.404 35.21-14.495 53.357-12.417 9.706 1.348 19.397 3.858 26.967 10.32 4.689 3.346 9.162 3.16 14.762 3.112l3.21.031c3.49.027 6.98.018 10.47.005q3.651.009 7.304.022 7.648.016 15.297-.014c6.522-.023 13.043.004 19.566.045 5.027.025 10.054.023 15.082.012a934 934 0 0 1 7.212.023c3.368.02 6.733.002 10.1-.027l2.986.042c7.246-.12 11.401-2.355 17.023-6.802 3.62-2.385 6.714-3.636 10.938-4.625l3.027-.727c16.763-3.58 33.064-1.852 48.644 5.364 2.422 1.179 2.422 1.179 5.391.988v2l5 1v2c1.654 1.447 1.654 1.447 3.75 2.875 3.03 2.184 5.608 4.483 8.25 7.125h2l.828 1.781c1.138 2.154 2.386 3.837 3.922 5.719 8.077 10.585 12.172 22.907 14.625 35.813l.636 3.25a1630 1630 0 0 1 3.352 17.867l.673 3.674q.64 3.517 1.264 7.036c.926 5.124 1.973 9.937 3.7 14.86.344 2.422.344 2.422.5 4.75.58 6.733 1.373 13.205 4.5 19.25.256-8.342-.532-16.31-1.687-24.562q-.55-4.092-1.094-8.184l-.293-2.192c-1.169-8.795-2.23-17.603-3.282-26.412q-.327-2.745-.66-5.487c-1.967-16.278-1.967-16.278-2.488-24.222-.407-5.772-1.407-11.255-2.746-16.879l-.67-2.87A157 157 0 0 0 431 149l-1.25-3.164C422.777 128.622 413.412 112.043 400 99l-2.605-2.676-2.582-2.636-2.606-2.676c-1.956-2.237-1.956-2.237-4.207-2.012v-2c-1.916-1.71-1.916-1.71-4.312-3.437-4.481-3.341-4.481-3.341-6.293-5.286-1.449-1.615-1.449-1.615-4.395-1.277v-2c-1.909-1.392-1.909-1.392-4.375-2.75l-2.785-1.61L363 69l-4.812-3c-27.506-16.326-58.408-23.189-90.093-23.185a852 852 0 0 1-6.784-.04C239.465 42.691 218.47 46.44 198 54m253 231 1 8h1l-1-8z" fill="#733DC8"/>
  <path d="m301 9 2.133.309C341.641 14.97 380.993 31.717 410 58v2l1.625.688c3.2 1.768 5.665 3.849 8.375 6.312v2h2c1.516 1.504 1.516 1.504 3.25 3.563l1.863 2.199L429 77l1.793 2.02 1.644 1.855 1.497 1.68C435 84 435 84 435 86h2a107 107 0 0 1 4.563 6.5l1.336 2.034c16.374 25.24 28.27 53.916 31.742 83.974.096 2.429.096 2.429 1.359 3.492 3.271.626 6.545 1.192 9.834 1.719 9.617 1.67 16.703 6.707 22.783 14.3 5.776 8.664 5.691 17.682 5.684 27.79l.013 4.004q.01 4.179.002 8.358c-.006 3.548.01 7.096.034 10.644.015 2.753.016 5.506.013 8.26 0 1.936.014 3.873.028 5.81-.057 11.011-2.235 19.569-9.391 28.115-5.673 5.51-11.684 8.237-19 11l-.044 2.209c-.62 27.819-4.044 53.233-17.956 77.791l-1.645 2.941c-16.516 27.608-44.372 45.933-75.117 53.85-17.678 4.422-35.052 5.783-53.238 6.209l-.781 2.305c-1.285 2.842-2.257 3.974-4.719 5.82l-1.844 1.445c-9.567 5.15-19.356 4.896-29.95 4.821-2.7-.016-5.398 0-8.097.02-13.475.017-23.347-.926-33.609-10.411-6.117-6.588-7.284-13.957-7.152-22.703.54-8.135 3.429-15.11 9.59-20.547 13.828-11.422 37.302-8.675 54.25-7.062 8.074.896 14.855 3.054 20.312 9.312v2h2l1 2c6.389 1.588 12.54.63 19-.187 1.671-.209 1.671-.209 3.376-.42 16.197-2.134 32.191-6.6 46.624-14.393l-2.71-.445c-8.237-1.528-14.45-3.73-21.29-8.555l-3-2v-2l-5-2v-2h-2c-1.945-2.117-1.945-2.117-4.125-4.875l-2.195-2.742C366 370 366 370 366 368h-2v-3h-2c-1.313-1.421-1.313-1.421-2.785-3.395l-1.608-2.146c-.55-.75-1.102-1.5-1.67-2.272l-1.681-2.236c-4.121-5.546-4.121-5.546-5.256-8.951h-2a100 100 0 0 1-3.625-5.062C336.222 330.892 328.086 324.806 316 322c-5.464-.798-10.757-1.153-16.273-1.161l-2.38-.015q-3.861-.021-7.722-.027l-2.692-.009q-7.06-.022-14.119-.028c-4.816-.006-9.633-.03-14.449-.058-3.742-.019-7.485-.024-11.227-.026a916 916 0 0 1-5.32-.024c-16.21-.113-30.43 1.123-44.818 9.348l-2.203.934c-2.312 1.372-2.694 2.635-3.797 5.066a153 153 0 0 1-4 5.25l-2.125 2.703L183 346h-2l-.687 2.063c-1.625 3.636-3.641 6.965-6.313 9.937h-2l-.75 1.625c-1.557 2.957-3.284 5.672-5.25 8.375h-2l-.687 2.125c-1.651 3.616-3.604 5.963-6.313 8.875h-2l-1 3h-2v2c-11.403 9.684-24.458 15.95-39.75 14.875C100.355 397.201 88.932 393.519 81 384v-2h-2c-11.01-14.964-11.785-31.646-9.09-49.38 2-12.597 4.189-25.195 7.09-37.62l-.75 2.438C75 300 75 300 73.241 300.65c-4.448.695-8.936.535-13.428.538l-3.042.037c-9.751.019-17.22-1.56-25.771-6.225v-2l-1.687-.562c-5.302-3.296-7.869-8.912-9.7-14.667-1.27-5.736-1.085-11.598-1.082-17.447l-.023-4.247q-.019-4.434-.009-8.868c.006-3.755-.025-7.51-.065-11.265a862 862 0 0 1-.025-8.764 351 351 0 0 0-.03-4.149c-.124-10.72 1.534-20.16 8.308-28.781C29 192 29 192 31 192l1-3c7.602-4.975 16.137-6.133 25-7l-.16-2.742c.01-5.605 1.443-10.956 2.722-16.383l.817-3.476C64.417 142.679 69.712 127.085 78 112l.972-1.814a194 194 0 0 1 12.403-20.061l1.3-1.86C93.73 86.803 94.86 85.395 96 84h2l2-5h2l.688-1.625c1.768-3.2 3.849-5.665 6.312-8.375h2v-2h2l1-3h2v-2a105 105 0 0 1 5.313-4.562l2.988-2.442C127 53 127 53 130 52v-2a114 114 0 0 1 6.563-4.562l2.05-1.342A759 759 0 0 1 145 40l1.94-1.235C192.294 10.143 248.227.89 301 9M198 54l-2.145.78c-8.898 3.288-17.186 7.314-25.417 12.032l-2.547 1.456-2.332 1.377-2.085 1.23L162 72v2l-2 .625c-4.072 1.866-7.688 4.35-11 7.375v2l-6 3v2l-3 1v2h-2v2l-1.937.813c-2.394 1.074-2.394 1.074-3.063 4.187h-2c-2.045 2.173-2.045 2.173-4.125 4.875l-2.195 2.742c-1.872 2.17-1.872 2.17-1.68 4.383h-2c-1.62 2.136-1.62 2.136-3.25 4.875l-1.887 3.059L114 122l-1.582 2.535c-14.215 23.066-21.182 48.224-23.721 75.006l-.232 2.397-.2 2.152C88 206 88 206 87 209a291 291 0 0 0-.344 7.078c-.585 11.985-2.44 23.807-4.156 35.672l-.973 6.867a5163 5163 0 0 1-1.787 12.495l-.36 2.503a113 113 0 0 1-.92 5.01c-.537 2.775-.557 5.363-.522 8.188l.027 2.957L78 292h1c1.44-6.172 2.578-12.328 3.535-18.594C83 271 83 271 84 270c.413-2.16.776-4.329 1.125-6.5 1.632-9.776 3.753-19.446 5.85-29.13 1.768-8.18 3.435-16.337 4.65-24.62 1.116-7.38 3.3-13.955 6.375-20.75l1.082-2.562C107.915 175.78 115.717 166.09 125 159l1.664-1.352c14.762-11.404 35.21-14.495 53.357-12.417 9.706 1.348 19.397 3.858 26.967 10.32 4.689 3.346 9.162 3.16 14.762 3.112l3.21.031c3.49.027 6.98.018 10.47.005q3.651.009 7.304.022 7.648.016 15.297-.014c6.522-.023 13.043.004 19.566.045 5.027.025 10.054.023 15.082.012a934 934 0 0 1 7.212.023c3.368.02 6.733.002 10.1-.027l2.986.042c7.246-.12 11.401-2.355 17.023-6.802 3.62-2.385 6.714-3.636 10.938-4.625l3.027-.727c16.763-3.58 33.064-1.852 48.644 5.364 2.422 1.179 2.422 1.179 5.391.988v2l5 1v2c1.654 1.447 1.654 1.447 3.75 2.875 3.03 2.184 5.608 4.483 8.25 7.125h2l.828 1.781c1.138 2.154 2.386 3.837 3.922 5.719 8.077 10.585 12.172 22.907 14.625 35.813l.636 3.25a1630 1630 0 0 1 3.352 17.867l.673 3.674q.64 3.517 1.264 7.036c.926 5.124 1.973 9.937 3.7 14.86.344 2.422.344 2.422.5 4.75.58 6.733 1.373 13.205 4.5 19.25.256-8.342-.532-16.31-1.687-24.562q-.55-4.092-1.094-8.184l-.293-2.192c-1.169-8.795-2.23-17.603-3.282-26.412q-.327-2.745-.66-5.487c-1.967-16.278-1.967-16.278-2.488-24.222-.407-5.772-1.407-11.255-2.746-16.879l-.67-2.87A157 157 0 0 0 431 149l-1.25-3.164C422.777 128.622 413.412 112.043 400 99l-2.605-2.676-2.582-2.636-2.606-2.676c-1.956-2.237-1.956-2.237-4.207-2.012v-2c-1.916-1.71-1.916-1.71-4.312-3.437-4.481-3.341-4.481-3.341-6.293-5.286-1.449-1.615-1.449-1.615-4.395-1.277v-2c-1.909-1.392-1.909-1.392-4.375-2.75l-2.785-1.61L363 69l-4.812-3c-27.506-16.326-58.408-23.189-90.093-23.185a852 852 0 0 1-6.784-.04C239.465 42.691 218.47 46.44 198 54m-70 112-2.047 1.512C107.201 182.4 103.035 204.793 99 227c-.781 4.19-1.576 8.376-2.375 12.563l-.612 3.214c-1.685 8.75-3.539 17.458-5.45 26.16l-.45 2.05a1990 1990 0 0 1-4.754 21.134c-11.131 41.98-11.131 41.98-1.671 82.692C90.495 384.025 97.678 388.828 109 391c12.52 1.665 25.025-3.1 35.012-10.488C149.835 375.718 154.37 369.917 159 364l2.559-3.258q2.034-2.59 4.064-5.184c5.245-6.691 10.59-13.3 15.99-19.865a416 416 0 0 0 3.414-4.236c7.938-9.656 18.637-15.513 30.973-17.457 3.207-.15 6.41-.147 9.62-.145l2.92-.01q4.77-.013 9.542-.013l6.647-.01q6.967-.009 13.933-.007c5.942 0 11.883-.014 17.825-.031q6.866-.015 13.73-.013 3.285 0 6.57-.013c3.068-.01 6.136-.007 9.204 0 .899-.007 1.797-.012 2.723-.018 12.36.061 24.128 4.49 33.227 13.022 4.228 4.597 7.981 9.576 11.76 14.543 1.813 2.366 3.678 4.687 5.549 7.007a684 684 0 0 1 7.25 9.188c7.724 10.216 7.724 10.216 16.5 19.5l1.578 1.488c8.983 8.154 18.82 11.11 30.918 10.88 8.549-.897 14.217-5.212 19.563-11.723 15.78-21.497 17.825-39.327 14.06-64.961-2.9-18.455-6.638-36.777-10.242-55.104q-2.005-10.2-3.943-20.412l-1.382-7.237q-.417-2.193-.83-4.387c-4.626-24.571-10.955-45.848-32.05-61.405-12.788-8.708-26.386-12.313-41.672-12.327l-2.29-.037c-8.309-.021-14.905 1.994-22.21 5.85l-1.914.984c-1.533.79-3.06 1.59-4.586 2.391v2c-2.893.964-4.77 1.139-7.78 1.167l-2.982.035-3.268.023-3.445.034c-10.487.098-20.974.15-31.461.186q-11.617.039-23.234.16c-6.112.063-12.223.087-18.335.098q-3.891.015-7.782.068c-3.636.046-7.27.048-10.907.04l-3.231.071c-6.9-.076-10.571-1.59-15.707-6.23-18.325-16.199-55.454-5.465-71.868 7.348m323 119 1 8h1l-1-8z" fill="#8A4BE2"/>
  <path d="m301 9 2.133.309C341.641 14.97 380.993 31.717 410 58v2l1.625.688c3.2 1.768 5.665 3.849 8.375 6.312v2h2c1.516 1.504 1.516 1.504 3.25 3.563l1.863 2.199L429 77l1.793 2.02 1.644 1.855 1.497 1.68C435 84 435 84 435 86h2a107 107 0 0 1 4.563 6.5l1.336 2.034c16.374 25.24 28.27 53.916 31.742 83.974.096 2.429.096 2.429 1.359 3.492 3.271.626 6.545 1.192 9.834 1.719 9.617 1.67 16.703 6.707 22.783 14.3 5.776 8.664 5.691 17.682 5.684 27.79l.013 4.004q.01 4.179.002 8.358c-.006 3.548.01 7.096.034 10.644.015 2.753.016 5.506.013 8.26 0 1.936.014 3.873.028 5.81-.057 11.011-2.235 19.569-9.391 28.115-5.673 5.51-11.684 8.237-19 11l-.044 2.209c-.62 27.819-4.044 53.233-17.956 77.791l-1.645 2.941c-16.516 27.608-44.372 45.933-75.117 53.85-17.678 4.422-35.052 5.783-53.238 6.209l-.781 2.305c-1.285 2.842-2.257 3.974-4.719 5.82l-1.844 1.445c-9.567 5.15-19.356 4.896-29.95 4.821-2.7-.016-5.398 0-8.097.02-13.475.017-23.347-.926-33.609-10.411-6.117-6.588-7.284-13.957-7.152-22.703.54-8.135 3.429-15.11 9.59-20.547 13.828-11.422 37.302-8.675 54.25-7.062 8.074.896 14.855 3.054 20.312 9.312v2h2l1 2c6.389 1.588 12.54.63 19-.187 1.671-.209 1.671-.209 3.376-.42 16.197-2.134 32.191-6.6 46.624-14.393l-2.71-.445c-8.237-1.528-14.45-3.73-21.29-8.555l-3-2v-2l-5-2v-2h-2c-1.945-2.117-1.945-2.117-4.125-4.875l-2.195-2.742C366 370 366 370 366 368h-2v-3h-2c-1.313-1.421-1.313-1.421-2.785-3.395l-1.608-2.146c-.55-.75-1.102-1.5-1.67-2.272l-1.681-2.236c-4.121-5.546-4.121-5.546-5.256-8.951h-2a100 100 0 0 1-3.625-5.062C336.222 330.892 328.086 324.806 316 322c-5.464-.798-10.757-1.153-16.273-1.161l-2.38-.015q-3.861-.021-7.722-.027l-2.692-.009q-7.06-.022-14.119-.028c-4.816-.006-9.633-.03-14.449-.058-3.742-.019-7.485-.024-11.227-.026a916 916 0 0 1-5.32-.024c-16.21-.113-30.43 1.123-44.818 9.348l-2.203.934c-2.312 1.372-2.694 2.635-3.797 5.066a153 153 0 0 1-4 5.25l-2.125 2.703L183 346h-2l-.687 2.063c-1.625 3.636-3.641 6.965-6.313 9.937h-2l-.75 1.625c-1.557 2.957-3.284 5.672-5.25 8.375h-2l-.687 2.125c-1.651 3.616-3.604 5.963-6.313 8.875h-2l-1 3h-2v2c-11.403 9.684-24.458 15.95-39.75 14.875C100.355 397.201 88.932 393.519 81 384v-2h-2c-11.01-14.964-11.785-31.646-9.09-49.38 2-12.597 4.189-25.195 7.09-37.62l-.75 2.438C75 300 75 300 73.241 300.65c-4.448.695-8.936.535-13.428.538l-3.042.037c-9.751.019-17.22-1.56-25.771-6.225v-2l-1.687-.562c-5.302-3.296-7.869-8.912-9.7-14.667-1.27-5.736-1.085-11.598-1.082-17.447l-.023-4.247q-.019-4.434-.009-8.868c.006-3.755-.025-7.51-.065-11.265a862 862 0 0 1-.025-8.764 351 351 0 0 0-.03-4.149c-.124-10.72 1.534-20.16 8.308-28.781C29 192 29 192 31 192l1-3c7.602-4.975 16.137-6.133 25-7l-.16-2.742c.01-5.605 1.443-10.956 2.722-16.383l.817-3.476C64.417 142.679 69.712 127.085 78 112l.972-1.814a194 194 0 0 1 12.403-20.061l1.3-1.86C93.73 86.803 94.86 85.395 96 84h2l2-5h2l.688-1.625c1.768-3.2 3.849-5.665 6.312-8.375h2v-2h2l1-3h2v-2a105 105 0 0 1 5.313-4.562l2.988-2.442C127 53 127 53 130 52v-2a114 114 0 0 1 6.563-4.562l2.05-1.342A759 759 0 0 1 145 40l1.94-1.235C192.294 10.143 248.227.89 301 9m-78 9-3.157.557c-2.29.426-4.567.886-6.843 1.38l-2.381.515C204.235 21.874 198.116 23.668 192 26l-2.142.796c-47.355 17.687-87.26 51.028-109.698 96.849-1.527 3.415-2.877 6.84-4.16 10.355l-.854 2.33C68.785 153.903 64.946 171.436 63 190l-3.035.148-4.028.227c-1.31.07-2.621.14-3.972.21-8.406.879-14.004 3.51-19.965 9.415-4.481 6.212-6.106 11.91-6.161 19.534l-.03 3.288-.012 3.53-.017 3.666q-.015 3.84-.02 7.68a2075 2075 0 0 1-.073 11.673l-.015 7.48-.038 3.493c.028 10.24 1.193 19.055 8.159 26.902 7.428 5.903 13.87 6.282 23.207 6.004l3.504-.055q4.249-.07 8.496-.195c2.78-13.932 5.122-27.856 7-41.937l.385-2.835c1.832-13.512 3.386-27.035 4.74-40.603C84.791 170.971 93.343 136.712 116 107l1.84-2.484C124.643 95.487 132.242 87.153 141 80l1.565-1.316C166.162 58.857 193.967 45.755 224 39l2.09-.5C272.735 27.659 326.515 38.839 367 63c3.457 2.192 6.736 4.533 10 7l2.582 1.785c7.236 5.042 13.63 10.758 19.984 16.844a350 350 0 0 0 3.684 3.46c19.204 18.314 31.332 43.036 39.125 68.036l.975 3.005c3.218 10.9 4.115 22.123 5.285 33.387.59 5.63 1.23 11.253 1.865 16.878l.75 6.705.375 3.352.75 6.748c1.256 11.334 2.547 22.652 4.188 33.937l.377 2.6q.684 4.707 1.378 9.414c1.58 10.834 2.124 21.483 2.12 32.411l.002 2.51c-.032 13.79-1.125 26.736-5.44 39.928l-.779 2.381c-7.87 23.01-23.457 38.745-44.221 50.619l-1.822 1.042C385.825 417.427 360.034 420.171 335 421l-.93-1.889c-3.348-6.606-7.598-9.93-14.554-12.308-6.61-1.51-13.28-1.392-20.032-1.324-2.546.021-5.089 0-7.634-.026-9.73-.018-18.466.115-26.323 6.582-.524.67-1.049 1.338-1.59 2.027l-1.66 2.036c-3.893 5.799-2.954 14.225-2.277 20.902 2.84 7.127 9.424 10.712 16 14 1.335.114 2.676.17 4.016.193l2.51.049c3.816.044 7.631.085 11.447.108q3.006.025 6.01.082c15.404.779 15.404.779 29.017-5.432 2.259-2.188 4.339-4.319 6-7v-2c.583.01 1.165.02 1.766.032 39.663.616 78.725-8.468 108.109-36.594A137 137 0 0 0 448 397l1.875-2.121c24.06-28.62 27.563-62.907 29.125-98.879l1.804-.577c9.06-2.95 16.814-6.196 22.196-14.423 3.544-7.307 3.437-14.754 3.398-22.723l.01-3.94q.005-4.105-.017-8.211c-.017-3.49-.007-6.977.01-10.466.014-3.357.005-6.713-.003-10.07l.019-3.767c-.08-9.85-1.615-16.692-8.448-24.061-6.222-5.567-13.122-6.8-21.219-7.324l-3.828-.254L470 190c-1.556-5.767-2.93-11.54-4.066-17.402C458.715 135.528 443.646 101.505 416 75l-5-5c-36.943-36.836-90.547-55.238-142.092-55.322l-2.609.006c-2.6.003-5.198-.02-7.797-.045-12.075-.046-23.627 1.22-35.502 3.361m-25 36-2.145.78c-8.898 3.288-17.186 7.314-25.417 12.032l-2.547 1.456-2.332 1.377-2.085 1.23L162 72v2l-2 .625c-4.072 1.866-7.688 4.35-11 7.375v2l-6 3v2l-3 1v2h-2v2l-1.937.813c-2.394 1.074-2.394 1.074-3.063 4.187h-2c-2.045 2.173-2.045 2.173-4.125 4.875l-2.195 2.742c-1.872 2.17-1.872 2.17-1.68 4.383h-2c-1.62 2.136-1.62 2.136-3.25 4.875l-1.887 3.059L114 122l-1.582 2.535c-14.215 23.066-21.182 48.224-23.721 75.006l-.232 2.397-.2 2.152C88 206 88 206 87 209a291 291 0 0 0-.344 7.078c-.585 11.985-2.44 23.807-4.156 35.672l-.973 6.867a5163 5163 0 0 1-1.787 12.495l-.36 2.503a113 113 0 0 1-.92 5.01c-.537 2.775-.557 5.363-.522 8.188l.027 2.957L78 292h1c1.44-6.172 2.578-12.328 3.535-18.594C83 271 83 271 84 270c.413-2.16.776-4.329 1.125-6.5 1.632-9.776 3.753-19.446 5.85-29.13 1.768-8.18 3.435-16.337 4.65-24.62 1.116-7.38 3.3-13.955 6.375-20.75l1.082-2.562C107.915 175.78 115.717 166.09 125 159l1.664-1.352c14.762-11.404 35.21-14.495 53.357-12.417 9.706 1.348 19.397 3.858 26.967 10.32 4.689 3.346 9.162 3.16 14.762 3.112l3.21.031c3.49.027 6.98.018 10.47.005q3.651.009 7.304.022 7.648.016 15.297-.014c6.522-.023 13.043.004 19.566.045 5.027.025 10.054.023 15.082.012a934 934 0 0 1 7.212.023c3.368.02 6.733.002 10.1-.027l2.986.042c7.246-.12 11.401-2.355 17.023-6.802 3.62-2.385 6.714-3.636 10.938-4.625l3.027-.727c16.763-3.58 33.064-1.852 48.644 5.364 2.422 1.179 2.422 1.179 5.391.988v2l5 1v2c1.654 1.447 1.654 1.447 3.75 2.875 3.03 2.184 5.608 4.483 8.25 7.125h2l.828 1.781c1.138 2.154 2.386 3.837 3.922 5.719 8.077 10.585 12.172 22.907 14.625 35.813l.636 3.25a1630 1630 0 0 1 3.352 17.867l.673 3.674q.64 3.517 1.264 7.036c.926 5.124 1.973 9.937 3.7 14.86.344 2.422.344 2.422.5 4.75.58 6.733 1.373 13.205 4.5 19.25.256-8.342-.532-16.31-1.687-24.562q-.55-4.092-1.094-8.184l-.293-2.192c-1.169-8.795-2.23-17.603-3.282-26.412q-.327-2.745-.66-5.487c-1.967-16.278-1.967-16.278-2.488-24.222-.407-5.772-1.407-11.255-2.746-16.879l-.67-2.87A157 157 0 0 0 431 149l-1.25-3.164C422.777 128.622 413.412 112.043 400 99l-2.605-2.676-2.582-2.636-2.606-2.676c-1.956-2.237-1.956-2.237-4.207-2.012v-2c-1.916-1.71-1.916-1.71-4.312-3.437-4.481-3.341-4.481-3.341-6.293-5.286-1.449-1.615-1.449-1.615-4.395-1.277v-2c-1.909-1.392-1.909-1.392-4.375-2.75l-2.785-1.61L363 69l-4.812-3c-27.506-16.326-58.408-23.189-90.093-23.185a852 852 0 0 1-6.784-.04C239.465 42.691 218.47 46.44 198 54m-70 112-2.047 1.512C107.201 182.4 103.035 204.793 99 227c-.781 4.19-1.576 8.376-2.375 12.563l-.612 3.214c-1.685 8.75-3.539 17.458-5.45 26.16l-.45 2.05a1990 1990 0 0 1-4.754 21.134c-11.131 41.98-11.131 41.98-1.671 82.692C90.495 384.025 97.678 388.828 109 391c12.52 1.665 25.025-3.1 35.012-10.488C149.835 375.718 154.37 369.917 159 364l2.559-3.258q2.034-2.59 4.064-5.184c5.245-6.691 10.59-13.3 15.99-19.865a416 416 0 0 0 3.414-4.236c7.938-9.656 18.637-15.513 30.973-17.457 3.207-.15 6.41-.147 9.62-.145l2.92-.01q4.77-.013 9.542-.013l6.647-.01q6.967-.009 13.933-.007c5.942 0 11.883-.014 17.825-.031q6.866-.015 13.73-.013 3.285 0 6.57-.013c3.068-.01 6.136-.007 9.204 0 .899-.007 1.797-.012 2.723-.018 12.36.061 24.128 4.49 33.227 13.022 4.228 4.597 7.981 9.576 11.76 14.543 1.813 2.366 3.678 4.687 5.549 7.007a684 684 0 0 1 7.25 9.188c7.724 10.216 7.724 10.216 16.5 19.5l1.578 1.488c8.983 8.154 18.82 11.11 30.918 10.88 8.549-.897 14.217-5.212 19.563-11.723 15.78-21.497 17.825-39.327 14.06-64.961-2.9-18.455-6.638-36.777-10.242-55.104q-2.005-10.2-3.943-20.412l-1.382-7.237q-.417-2.193-.83-4.387c-4.626-24.571-10.955-45.848-32.05-61.405-12.788-8.708-26.386-12.313-41.672-12.327l-2.29-.037c-8.309-.021-14.905 1.994-22.21 5.85l-1.914.984c-1.533.79-3.06 1.59-4.586 2.391v2c-2.893.964-4.77 1.139-7.78 1.167l-2.982.035-3.268.023-3.445.034c-10.487.098-20.974.15-31.461.186q-11.617.039-23.234.16c-6.112.063-12.223.087-18.335.098q-3.891.015-7.782.068c-3.636.046-7.27.048-10.907.04l-3.231.071c-6.9-.076-10.571-1.59-15.707-6.23-18.325-16.199-55.454-5.465-71.868 7.348m323 119 1 8h1l-1-8z" fill="#EAAEFC"/>
  <path d="m164.33 202.678 2.483.01 2.447-.05c4.701-.003 7.996.203 11.74 3.362 1.752 2.896 2.27 5.149 2.379 8.512l.103 2.545.08 2.63q.09 2.6.192 5.2l.072 2.319c-.016 1.816-.016 1.816 1.174 2.794 1.345.108 2.694.156 4.043.176l2.506.072q2.61.064 5.219.094c5.511.183 8.93.877 13.232 4.658 3.815 5.065 2.635 12.988 2 19-1.276 3.148-2.194 3.865-5 6-4.953 2.071-9.588 2.41-14.875 2.625l-2.375.117c-1.916.094-3.833.177-5.75.258l-.044 1.757a947 947 0 0 1-.268 7.93l-.069 2.764c-.197 4.936-.374 8.57-3.619 12.549-5.41 4.13-12.49 3.831-19 3-4.156-1.854-6.25-3.793-8-8-.486-3.434-.602-6.848-.687-10.313l-.104-2.822A640 640 0 0 1 152 263l-1.848-.028c-2.78-.054-5.56-.138-8.34-.222l-2.908-.043c-4.332-.15-7.169-.274-10.955-2.504-3.967-4.484-4.338-8.18-4.386-14.078l-.1-2.105c-.041-3.951.486-6.444 2.94-9.465 3.35-3.296 4.837-3.68 9.386-3.871l2.852-.127 2.984-.12 3.008-.13q3.683-.16 7.367-.307l.044-1.757a947 947 0 0 1 .269-7.93l.068-2.764c.353-8.823 2.157-14.783 11.95-14.871" fill="#8044DA"/>
  <path d="m164.33 202.678 2.483.01 2.447-.05c4.701-.003 7.996.203 11.74 3.362 1.752 2.896 2.27 5.149 2.379 8.512l.103 2.545.08 2.63q.09 2.6.192 5.2l.072 2.319c-.016 1.816-.016 1.816 1.174 2.794 1.345.108 2.694.156 4.043.176l2.506.072q2.61.064 5.219.094c5.511.183 8.93.877 13.232 4.658 3.815 5.065 2.635 12.988 2 19-1.276 3.148-2.194 3.865-5 6-4.953 2.071-9.588 2.41-14.875 2.625l-2.375.117c-1.916.094-3.833.177-5.75.258l-.044 1.757a947 947 0 0 1-.268 7.93l-.069 2.764c-.197 4.936-.374 8.57-3.619 12.549-5.41 4.13-12.49 3.831-19 3-4.156-1.854-6.25-3.793-8-8-.486-3.434-.602-6.848-.687-10.313l-.104-2.822A640 640 0 0 1 152 263l-1.848-.028c-2.78-.054-5.56-.138-8.34-.222l-2.908-.043c-4.332-.15-7.169-.274-10.955-2.504-3.967-4.484-4.338-8.18-4.386-14.078l-.1-2.105c-.041-3.951.486-6.444 2.94-9.465 3.35-3.296 4.837-3.68 9.386-3.871l2.852-.127 2.984-.12 3.008-.13q3.683-.16 7.367-.307l.044-1.757a947 947 0 0 1 .269-7.93l.068-2.764c.353-8.823 2.157-14.783 11.95-14.871M160 209c-1.193 2.387-1.186 4.02-1.281 6.684l-.114 2.81-.105 2.943q-.103 2.873-.219 5.747l-.092 2.58C158 232 158 232 157 235c-5.854 1.497-11.952 1.311-17.959 1.43l-2.646.093-2.411.06c-2.385.26-2.385.26-3.984 3.417-.356 2.835-.356 2.835-.312 5.937l-.051 3.153c.416 3.332 1.061 4.51 3.363 6.91 2.241.59 2.241.59 4.746.504l2.787.057 2.905.001q2.841.014 5.683.067l2.545.002c2.94.465 4.268 1.23 6.334 3.369.53 2.328.53 2.328.574 5.035l.084 2.951.03 3.076q.062 3.018.136 6.036l.034 2.703c.002 2.242.002 2.242 1.142 4.199q3.688.08 7.375.125l2.117.05c1.837.018 3.674-.072 5.508-.175 2.523-2.523 2.25-3.413 2.273-6.902l.063-2.948q.039-3.081.055-6.164l.07-2.95.025-2.708c.514-2.328.514-2.328 2.259-4.12 2.526-1.353 4.033-1.576 6.88-1.58.871-.016 1.743-.034 2.64-.052q2.735-.014 5.47-.015c5.215-.076 5.215-.076 9.863-2.217 1.784-2.982 1.904-4.945 1.84-8.407l-.004-3.16c-.495-3.167-.945-3.865-3.434-5.777-2.136-.422-2.136-.422-4.492-.336l-2.637-.039q-2.734 0-5.469.023c-4.286-.076-6.781-.266-10.492-2.55-2.717-4.406-2.616-8.202-2.597-13.286q-.025-2.71-.075-5.417l.002-2.411c-.061-2.217-.061-2.217-2.24-3.984a94 94 0 0 0-7.625-.125l-2.14.027c-1.746.024-3.49.06-5.235.098" fill="#EDB0FC"/>
  <path d="M373.125 196.625c4.52 2.458 7.557 5.739 9.875 10.375.507 5.555.763 10.418-1.687 15.5-3.337 3.607-7.52 8.08-12.547 8.836-6.221.097-9.743-.594-14.766-4.336-4.166-4.145-6.134-7.788-6.375-13.687.065-5.56 1.705-9.175 5.375-13.313 6.342-4.946 12.533-6.834 20.125-3.375" fill="#EAAEFC"/>
  <path d="M374.313 262.563c4.062 2.38 6.955 4.995 8.687 9.437.983 5.86.896 11.242-2.062 16.5-2.735 3.656-5.52 6.179-9.938 7.5-5.346.747-9.551.711-14.437-1.687-4.108-3.707-7.917-7.754-8.934-13.356-.197-6.355 1.424-10.948 5.371-15.957 5.835-5.509 14.216-5.53 21.313-2.437" fill="#EBAEFC"/>
  <path d="M338.25 229.688c4.304 2.396 6.666 5.307 9 9.625 1.271 4.556 1.69 8.463-.16 12.84-3.186 5.5-6.972 8.808-13.09 10.847-5.616.368-9.177.216-14-3-4.626-4.836-7.025-8.71-7.375-15.375.15-4.723 1.132-8.121 4.375-11.625 6.791-5.27 13.202-6.942 21.25-3.312m67.941-.024c3.667 1.821 6.322 4.482 8.149 8.145 1.8 5.975 1.652 12.053-.965 17.691-4.277 4.502-8.43 7.278-14.687 7.75-5.834-.395-9.155-2.421-13-6.687-3.728-4.374-4.048-8.722-3.965-14.32.623-5.039 4.414-9.26 8.312-12.325 4.944-2.31 11.034-1.806 16.156-.254" fill="#EAAEFB"/>
  <path d="M370 202c5.463 2.927 5.463 2.927 7 6 .521 4.83.734 8.742-1.75 13-3.351 2.979-5.122 3.875-9.625 4.375-4.318-.447-6.318-1.607-9.625-4.375-2.586-3.41-2.365-6.839-2-11 3.378-7.43 8.182-9.258 16-8" fill="#8346E0"/>
  <path d="M370 267c3.072 1.71 5.405 3.81 7 7 .544 4.54.623 7.954-1.75 11.938-3.366 3.085-5.09 3.957-9.687 4.375-4.672-.41-6.95-1.868-10.375-4.938-1.863-3.726-1.858-7.298-1.188-11.375 4.003-6.488 8.68-8.26 16-7" fill="#8547DF"/>
  <path d="M336 235c2.706 2.198 4.448 3.896 6 7 .581 7.09.581 7.09-1.875 10.938-3.085 2.994-4.802 3.218-9 3.25l-2.617.042c-2.679-.246-4.243-.806-6.508-2.23-3.153-3.941-3.533-7.03-3-12 1.316-3.047 2.645-4.687 5.125-6.875 4.147-1.623 7.629-1.41 11.875-.125" fill="#8345E0"/>
  <path d="M398.188 234.625c3.575.023 5.544.46 8.312 2.75 2.936 3.082 3.432 3.727 3.75 7.938-.265 3.913-.883 5.619-3.25 8.687-4.236 2.824-8.025 2.667-13 2-2.934-1.796-4.472-2.944-6-6-.42-3.059-.49-5.948 0-9 2.438-3 2.438-3 5-5 1.55-1.55 3.037-1.281 5.188-1.375" fill="#8646E0"/>
</svg>
